<svg version="1.1" xmlns="http://www.w3.org/2000/svg" xmlns:xlink="http://www.w3.org/1999/xlink" width="90.32686" height="28.20887" viewBox="0,0,90.32686,28.20887"><g transform="translate(-194.83657,-165.89559)"><g stroke-miterlimit="10"><path d="M194.83657,186.14669c0,-12.73125 0,8.55421 0,-12.82899c0,-4.2319 2.16692,-7.42211 7.18488,-7.42211c32.95552,0 57.80786,0 75.683,0c4.14036,0 7.45898,3.50501 7.45898,7.42211c0,12.33474 0,-9.35847 0,12.70231c0,4.55698 -3.82295,8.08445 -8.47236,8.08445c-18.71589,0 -40.62747,0 -73.71958,0c-5.17423,0 -8.13492,-3.79101 -8.13492,-7.95778z" fill-opacity="0.01176" fill="#ffffff" fill-rule="nonzero" stroke="#000000" stroke-width="0"/><path d="M205.14703,174.40288c0.80892,-0.84891 1.911,-1.33132 3.0665,-1.33132c1.15551,0 2.25745,0.48242 3.06651,1.33132c0.80759,0.84824 1.25736,1.99305 1.25736,3.18165c0,2.24756 0.45776,3.65415 0.88754,4.48112c0.21522,0.41446 0.42578,0.68832 0.57438,0.85223c0.07396,0.08263 0.13326,0.13793 0.16991,0.16992c0.01866,0.01599 0.03132,0.02665 0.03732,0.03132c0.002,0.00133 0.00333,0.00267 0.004,0.00333c0.18658,0.13393 0.26653,0.37314 0.19723,0.59304c-0.06996,0.22189 -0.2752,0.37247 -0.50841,0.37247h-11.37151c-0.23255,0 -0.43844,-0.15058 -0.50841,-0.37247c-0.0693,-0.2199 0.01066,-0.4591 0.19723,-0.59304c0.00066,-0.00066 0.00199,-0.002 0.004,-0.00333c0.006,-0.00466 0.01933,-0.01533 0.03732,-0.03132c0.03664,-0.03198 0.09595,-0.08729 0.16991,-0.16992c0.14859,-0.16392 0.35916,-0.43777 0.57438,-0.85223c0.42978,-0.82692 0.88754,-2.23356 0.88754,-4.48112c0,-1.18874 0.44977,-2.33353 1.25736,-3.18165zM212.74719,183.02175c-0.08862,-0.13793 -0.17858,-0.29251 -0.26853,-0.4651c-0.51774,-0.99683 -1.00747,-2.57609 -1.00747,-4.97205c0,-0.92219 -0.34916,-1.80166 -0.9635,-2.44679c-0.61303,-0.64366 -1.4386,-1.00016 -2.29412,-1.00016c-0.85553,0 -1.68115,0.35648 -2.29412,1.00016c-0.61436,0.64499 -0.9635,1.52455 -0.9635,2.44679c0,2.39613 -0.48975,3.97535 -1.00747,4.97205c-0.08996,0.17257 -0.17991,0.32717 -0.26786,0.4651zM206.71636,185.22603c0.25454,-0.14726 0.58103,-0.06064 0.72896,0.19389c0.07796,0.13459 0.1899,0.24654 0.32515,0.32383c0.13459,0.07796 0.28786,0.11861 0.44312,0.11861c0.15592,0 0.30851,-0.04065 0.44378,-0.11861c0.13459,-0.07729 0.24654,-0.18924 0.32449,-0.32383c0.14792,-0.25454 0.47441,-0.34115 0.72895,-0.19389c0.25454,0.14792 0.34116,0.47441 0.19324,0.72895c-0.17124,0.29585 -0.41845,0.54173 -0.71497,0.71298c-0.29652,0.17058 -0.63301,0.26053 -0.97551,0.26053c-0.3425,0 -0.67899,-0.08995 -0.97551,-0.26053c-0.29652,-0.17124 -0.54306,-0.41712 -0.71497,-0.71298c-0.14792,-0.25454 -0.0613,-0.58103 0.19323,-0.72895z" fill="#000000" fill-rule="evenodd" stroke="none" stroke-width="1"/><text transform="translate(225.20834,183.48531) scale(0.30209,0.30209)" font-size="40" xml:space="preserve" fill="#000000" fill-rule="nonzero" stroke="none" stroke-width="1" font-family="Sans Serif" font-weight="normal" text-anchor="start"><tspan x="0" dy="0">消息</tspan></text></g></g></svg>